# xmcd CD database file
#
# Track frame offsets:
#	150
#	12473
#	24998
#	37605
#	51184
#	64778
#	78402
#	91150
#	104075
#	117374
#	131134
#	143612
#	157402
#	171496
#	184758
#	197139
#	210593
#	223768
#	237317
#	250490
#	263869
#	277597
#	291953
#	306446
#	320665
#
# Disc length: 4441 seconds
#
# Revision: 0
# Processed by: cddbd v1.5PL3 Copyright (c) Steve Scherf et al.
# Submitted via: CDex 1.51
#
DISCID=7b115719
DTITLE=Tommy McClennan - Big Joe Williams and the Stars of Mississippi Blues, Disc D
DYEAR=2004
DGENRE=Blues
TTITLE0=Cross Cut Saw Blues - (take 1)
TTITLE1=Cross Cut Saw Blues - (take 2)
TTITLE2=Classy Mae Blues
TTITLE3=You Can't Read My Mind
TTITLE4=Travelin' Highway Man
TTITLE5=Deep Blue Sea Blues
TTITLE6=I'm A Guitar King
TTITLE7=It's A Crying Pity
TTITLE8=Mozelle Blues
TTITLE9=Blues Trip Me This Morning
TTITLE10=Mr. So And So Blues
TTITLE11=Roll Me, Baby
TTITLE12=I Love My Baby
TTITLE13=Shake It Up And Go
TTITLE14=Blue As I Can Be
TTITLE15=Bluebird Blues
TTITLE16=Bluebird Blues - (take 2)
TTITLE17=Boogie Woogie Woman
TTITLE18=Robert Petway - Catfish Blues
TTITLE19=Robert Petway - Ride 'Em On Down
TTITLE20=Robert Petway - Rockin' Chair Blues
TTITLE21=Robert Petway - My Little Girl
TTITLE22=Robert Petway - Let Me Be Your Boss
TTITLE23=Robert Petway - Left My Baby Crying
TTITLE24=Robert Petway - Sleepy Woman Blues 
EXTD=YEAR: 2004
EXTT0=
EXTT1=
EXTT2=
EXTT3=
EXTT4=
EXTT5=
EXTT6=
EXTT7=
EXTT8=
EXTT9=
EXTT10=
EXTT11=
EXTT12=
EXTT13=
EXTT14=
EXTT15=
EXTT16=
EXTT17=
EXTT18=
EXTT19=
EXTT20=
EXTT21=
EXTT22=
EXTT23=
EXTT24=
PLAYORDER=
